<?xml version="1.0" encoding="UTF-8" standalone="no"?> <!-- Created with Vectornator for iOS (http://vectornator.io/) --><!DOCTYPE svg PUBLIC "-//W3C//DTD SVG 1.1//EN" "http://www.w3.org/Graphics/SVG/1.1/DTD/svg11.dtd">
<svg height="100%" style="fill-rule:evenodd;clip-rule:evenodd;stroke-linecap:round;stroke-linejoin:round;" xmlns:xlink="http://www.w3.org/1999/xlink" xmlns="http://www.w3.org/2000/svg" xml:space="preserve" width="100%" xmlns:vectornator="http://vectornator.io" version="1.1" viewBox="0 0 842 595">
<metadata>
<vectornator:setting key="DisplayWhiteBackground" value="0"/>
<vectornator:setting key="RulersVisible" value="1"/>
<vectornator:setting key="Units" value="Pixels"/>
<vectornator:setting key="New" value="1"/>
<vectornator:setting key="DynamicGuides" value="0"/>
<vectornator:setting key="GuidesVisible" value="1"/>
<vectornator:setting key="SnapToPoints" value="0"/>
<vectornator:setting key="SnapToGrid" value="0"/>
<vectornator:setting key="SnapToGuides" value="1"/>
<vectornator:setting key="DimensionsVisible" value="1"/>
<vectornator:setting key="SnapToEdges" value="0"/>
</metadata>
<defs/>
<g id="Layer 2" vectornator:layerName="Layer 2">
<path stroke="#3360d7" stroke-width="2.03609" d="M-26.5612+319.303C-26.5612+319.303+221.102+324.53+255.938+317.24C291.019+309.898+311.008+274.694+327.615+258.93C344.221+243.167+369.289+235.212+380.589+246.298C366.596+255.124+352.347+269.379+352.048+298.974C351.654+337.979+387.39+361.361+417.41+361.035C451.063+360.669+480.992+333.803+481.873+299.726C482.605+271.458+466.065+254.856+452.824+248.893C470.801+238.261+491.025+245.824+507.818+261.724C524.61+277.625+546.887+313.846+573.165+317.328C599.444+320.81+870.989+323.457+870.989+323.457L876.774+585.269L-34.7743+583.187C-29.7361+594.521-26.5612+319.303-26.5612+319.303Z" fill="#000055" stroke-linecap="butt" opacity="1" stroke-linejoin="round"/>
<path stroke="#848282" stroke-width="2.03609" d="M421.741+214.697C420.931+252.147+419.988+272.732+411.866+283.885C402.027+279.855+390.143+268.895+370.209+250.416C388.829+268.766+400.321+280.413+404.803+290.354C392.953+297.333+372.357+296.677+335.928+295.385C373.32+297.003+393.804+298.04+405.491+306.791C401.685+317.24+389.892+329.055+370.053+348.635C389.706+329.538+401.6+318.101+412.334+314.166C419.787+326.109+421.124+346.498+422.678+382.322C422.787+346.132+422.66+325.599+428.616+314.01C439.346+317.623+452.016+328.13+472.397+345.76C452.467+326.836+440.368+315.503+435.616+305.885C445.891+298.923+464.424+299.193+497.897+299.822C463.687+297.963+445.081+297.329+434.803+289.604C438.506+280.534+448.777+269.969+465.428+252.979C448.597+268.975+438.171+279.193+429.178+283.447C422.252+272.237+422.077+252.178+421.741+214.697Z" fill="#aeaeae" stroke-linecap="butt" opacity="1" stroke-linejoin="round"/>
<path stroke="#dcdbdb" stroke-width="2.03609" d="M421.269+307.966C425.983+307.783+430.639+302.7+430.428+297.972C430.217+293.245+425.14+288.871+420.426+289.054C415.712+289.237+411.362+293.977+411.572+298.704C411.783+303.432+416.555+308.149+421.269+307.966Z" fill="#ffffff" stroke-linecap="butt" opacity="1" stroke-linejoin="round"/>
</g>
</svg>
